<?xml version="1.0" standalone="no"?>
<!DOCTYPE svg PUBLIC "-//W3C//DTD SVG 20010904//EN"
 "http://www.w3.org/TR/2001/REC-SVG-20010904/DTD/svg10.dtd">
<svg version="1.0" xmlns="http://www.w3.org/2000/svg"
 width="541.000000pt" height="200.000000pt" viewBox="0 0 541.000000 200.000000"
 preserveAspectRatio="xMidYMid meet">

<g transform="translate(0.000000,200.000000) scale(0.100000,-0.100000)"
fill="#000000" stroke="none">
<path d="M2672 1673 c-30 -60 -56 -159 -48 -184 2 -8 7 -26 10 -40 l6 -27 -38
14 c-20 7 -50 13 -66 14 -27 0 -25 -3 22 -26 29 -14 60 -38 71 -52 23 -34 44
-98 37 -111 -4 -5 1 -14 10 -19 18 -10 17 -21 -8 -82 -13 -33 -12 -39 12 -89
l27 -55 26 57 c24 53 25 59 11 92 -16 40 -18 75 -4 75 6 0 10 17 10 38 0 63
59 133 135 160 l30 10 -33 1 c-18 1 -49 -6 -69 -14 -19 -8 -37 -15 -39 -15 -1
0 2 14 8 31 6 17 8 54 4 85 -6 55 -54 175 -74 188 -7 4 -23 -16 -40 -51z"/>
<path d="M1140 1429 c-132 -26 -260 -149 -260 -251 l0 -33 -24 36 c-13 19 -42
48 -65 63 -33 23 -51 29 -96 28 -36 0 -66 -7 -85 -19 l-30 -19 73 1 c132 0
194 -57 228 -209 25 -112 56 -172 121 -237 43 -42 47 -49 23 -37 -16 9 -75 30
-130 48 -137 45 -245 47 -328 7 -153 -75 -235 -281 -166 -417 41 -83 115 -125
219 -124 77 0 155 26 205 69 20 17 20 17 0 10 -44 -14 -142 -17 -185 -5 -92
25 -170 139 -170 249 0 55 35 116 87 150 97 65 195 62 433 -14 205 -64 270
-76 439 -76 216 -1 303 20 628 155 119 49 221 76 288 75 l40 0 -40 -13 c-46
-15 -101 -42 -109 -54 -3 -5 18 3 47 17 44 22 65 26 142 26 103 0 159 -21 226
-85 l38 -36 -19 -52 c-25 -65 -26 -151 -3 -215 l18 -49 -35 -29 c-93 -77 -227
-59 -292 39 -27 41 -24 119 7 164 45 67 137 72 185 11 35 -45 20 -112 -31
-133 -53 -22 -108 22 -95 77 6 27 6 27 -9 8 -22 -27 -12 -74 21 -102 59 -52
155 -12 174 72 8 33 6 48 -13 85 -77 157 -307 82 -307 -100 0 -67 18 -107 68
-152 88 -80 244 -76 322 7 l23 24 38 -29 c82 -66 175 -78 266 -36 128 60 160
213 66 316 -72 80 -190 71 -250 -20 -74 -109 57 -247 156 -164 34 29 43 82 17
103 -12 10 -13 8 -9 -8 9 -35 -5 -68 -35 -80 -41 -17 -79 0 -98 44 -20 49 -1
95 50 119 124 59 231 -115 139 -225 -73 -86 -215 -89 -291 -6 -23 24 -23 26
-8 56 28 54 31 138 6 210 l-21 64 33 34 c18 19 56 47 83 61 44 23 62 26 145
27 84 0 101 -3 150 -28 39 -19 48 -22 30 -7 -14 11 -50 29 -80 40 l-55 20 70
-5 c83 -6 155 -28 325 -100 244 -103 346 -126 560 -126 161 0 234 12 401 66
220 70 314 83 407 56 59 -17 127 -84 142 -141 24 -90 -39 -229 -124 -273 -49
-26 -131 -33 -192 -18 -26 7 -48 10 -50 9 -2 -2 21 -18 51 -36 151 -90 324
-54 390 83 24 48 27 64 23 123 -9 117 -81 233 -177 282 -115 58 -231 48 -450
-39 l-54 -22 50 45 c63 57 106 139 127 240 9 43 25 94 37 112 46 75 123 111
213 100 44 -5 48 -4 35 9 -21 21 -104 35 -146 23 -39 -10 -109 -69 -118 -99
-10 -29 -20 -23 -21 14 -2 117 -165 250 -307 250 -101 0 -174 -48 -196 -130
-11 -39 1 -83 21 -83 7 0 36 15 63 33 62 42 105 57 161 57 87 0 200 -64 235
-133 20 -38 21 -48 12 -108 -12 -77 -55 -178 -88 -209 l-23 -22 15 44 c15 41
15 46 -6 94 -21 47 -95 134 -105 123 -3 -3 2 -25 10 -49 11 -31 15 -72 12
-131 -3 -74 -7 -91 -31 -128 -43 -65 -132 -90 -324 -91 -170 0 -296 26 -512
107 -200 74 -275 93 -381 93 -143 0 -251 -35 -341 -110 l-46 -39 -32 33 c-44
45 -144 92 -226 107 -146 25 -277 2 -520 -91 -207 -80 -276 -93 -480 -94 -217
-1 -275 12 -324 71 -54 66 -61 145 -25 298 l7 30 -43 -40 c-76 -72 -97 -142
-64 -208 l17 -32 -22 19 c-12 11 -38 52 -57 91 -46 94 -57 202 -25 252 46 74
168 130 262 121 33 -4 70 -18 118 -48 79 -47 101 -44 101 12 0 63 -71 142
-137 153 -21 4 -45 8 -53 10 -8 1 -35 -1 -60 -6z m1594 -813 c7 -45 -5 -121
-22 -138 -25 -25 -42 122 -20 182 10 30 12 31 23 16 7 -9 16 -36 19 -60z"/>
<path d="M2465 1365 c-46 -45 -29 -73 34 -54 48 14 80 7 120 -27 36 -30 40
-17 9 37 -37 67 -119 89 -163 44z"/>
<path d="M2833 1370 c-33 -19 -63 -66 -63 -96 0 -12 9 -8 36 16 38 33 56 35
137 15 25 -7 27 -5 27 23 0 58 -74 81 -137 42z"/>
<path d="M1879 1230 c-70 -20 -99 -60 -99 -133 0 -129 178 -215 383 -186 74
10 385 88 356 89 -9 0 -84 -17 -165 -37 -128 -32 -165 -37 -264 -37 -98 0
-122 3 -165 22 -104 48 -147 123 -115 206 27 71 185 75 234 5 31 -46 10 -113
-39 -121 -16 -2 -19 2 -17 23 4 33 -33 48 -47 20 -12 -22 -2 -37 29 -49 57
-21 118 37 105 98 -7 34 -64 87 -100 95 -57 12 -71 12 -96 5z"/>
<path d="M3465 1231 c-108 -27 -157 -112 -102 -177 26 -30 74 -37 101 -14 20
16 21 46 1 54 -19 7 -46 -20 -39 -39 9 -22 -29 -19 -49 3 -10 10 -17 32 -17
48 0 62 56 104 141 104 45 0 55 -4 85 -34 72 -72 25 -177 -104 -233 -27 -13
-67 -17 -152 -17 -100 0 -135 5 -270 38 -85 21 -182 40 -215 42 l-60 3 60 -9
c33 -4 134 -27 225 -51 141 -36 180 -42 265 -41 145 0 226 34 279 116 72 110
-21 238 -149 207z"/>
<path d="M626 1182 c-3 -6 -1 -14 5 -17 15 -10 25 3 12 16 -7 7 -13 7 -17 1z"/>
<path d="M665 1180 c-4 -6 -3 -16 3 -22 6 -6 12 -6 17 2 4 6 3 16 -3 22 -6 6
-12 6 -17 -2z"/>
<path d="M4725 1180 c-8 -13 4 -32 16 -25 12 8 12 35 0 35 -6 0 -13 -4 -16
-10z"/>
<path d="M4770 1176 c0 -9 5 -16 10 -16 6 0 10 4 10 9 0 6 -4 13 -10 16 -5 3
-10 -1 -10 -9z"/>
<path d="M4681 1170 c-16 -9 -6 -30 15 -30 15 0 20 25 6 34 -4 2 -14 1 -21 -4z"/>
<path d="M595 1160 c3 -5 8 -10 11 -10 2 0 4 5 4 10 0 6 -5 10 -11 10 -5 0 -7
-4 -4 -10z"/>
<path d="M707 1164 c-9 -10 2 -24 19 -24 8 0 14 7 14 15 0 15 -21 21 -33 9z"/>
<path d="M4805 1160 c3 -5 8 -10 11 -10 2 0 4 5 4 10 0 6 -5 10 -11 10 -5 0
-7 -4 -4 -10z"/>
<path d="M756 1143 c-11 -11 -6 -23 9 -23 8 0 15 4 15 9 0 13 -16 22 -24 14z"/>
<path d="M4640 1135 c0 -9 5 -15 11 -13 6 2 11 8 11 13 0 5 -5 11 -11 13 -6 2
-11 -4 -11 -13z"/>
<path d="M786 1111 c-4 -5 -2 -12 3 -15 5 -4 12 -2 15 3 4 5 2 12 -3 15 -5 4
-12 2 -15 -3z"/>
<path d="M4607 1114 c-8 -8 1 -24 14 -24 5 0 9 7 9 15 0 15 -12 20 -23 9z"/>
<path d="M2506 1102 c-7 -11 5 -27 32 -41 l24 -13 -23 31 c-25 34 -26 35 -33
23z"/>
<path d="M2880 1079 l-23 -31 22 11 c22 12 38 38 28 47 -3 3 -15 -9 -27 -27z"/>
<path d="M2430 1085 c0 -16 30 -35 55 -35 12 0 8 7 -13 25 -34 29 -42 31 -42
10z"/>
<path d="M2941 1074 c-30 -21 -31 -24 -12 -24 31 0 61 18 61 35 0 20 -9 18
-49 -11z"/>
<path d="M810 1080 c0 -5 5 -10 10 -10 6 0 10 5 10 10 0 6 -4 10 -10 10 -5 0
-10 -4 -10 -10z"/>
<path d="M2327 1083 c-3 -5 -3 -14 1 -20 7 -12 55 -33 73 -33 16 0 10 17 -8
23 -10 4 -28 13 -40 22 -11 9 -23 12 -26 8z"/>
<path d="M3040 1064 c-48 -35 -49 -37 -10 -29 41 8 60 22 60 41 0 19 -9 17
-50 -12z"/>
<path d="M4590 1080 c0 -5 5 -10 11 -10 5 0 7 5 4 10 -3 6 -8 10 -11 10 -2 0
-4 -4 -4 -10z"/>
<path d="M2490 1033 c-40 -7 -192 -54 -188 -58 2 -2 46 7 98 19 52 13 120 28
150 34 l55 9 -45 0 c-25 0 -56 -2 -70 -4z"/>
<path d="M2885 1025 c39 -7 98 -20 131 -29 75 -20 90 -20 46 -1 -43 19 -172
45 -214 44 -22 -1 -9 -6 37 -14z"/>
<path d="M3655 1030 c-3 -5 -1 -10 4 -10 6 0 11 5 11 10 0 6 -2 10 -4 10 -3 0
-8 -4 -11 -10z"/>
<path d="M2558 1003 c12 -2 32 -2 45 0 12 2 2 4 -23 4 -25 0 -35 -2 -22 -4z"/>
<path d="M1775 959 c-10 -15 3 -25 16 -12 7 7 7 13 1 17 -6 3 -14 1 -17 -5z"/>
<path d="M3626 963 c-11 -11 -6 -23 9 -23 8 0 15 4 15 9 0 13 -16 22 -24 14z"/>
<path d="M1845 921 c-3 -5 -1 -12 5 -16 5 -3 10 1 10 9 0 18 -6 21 -15 7z"/>
<path d="M3555 920 c-3 -5 1 -10 10 -10 9 0 13 5 10 10 -3 6 -8 10 -10 10 -2
0 -7 -4 -10 -10z"/>
<path d="M1809 850 c-100 -18 -139 -33 -139 -52 0 -18 98 -3 175 28 122 47
115 52 -36 24z"/>
<path d="M3494 859 c71 -44 256 -87 256 -59 0 15 -30 27 -110 43 -123 25 -168
30 -146 16z"/>
<path d="M2116 725 c-11 -8 -45 -24 -75 -36 -70 -26 -95 -47 -80 -66 31 -37
138 18 175 90 16 30 9 34 -20 12z"/>
<path d="M3277 723 c10 -31 76 -92 110 -104 37 -12 73 -4 73 15 0 18 -16 29
-75 51 -27 10 -62 26 -77 36 -33 24 -39 24 -31 2z"/>
<path d="M2127 642 c-26 -29 -38 -69 -27 -97 10 -27 36 -43 48 -30 8 8 10 145
1 145 -3 0 -13 -8 -22 -18z"/>
<path d="M3263 590 c-2 -55 1 -72 12 -77 23 -8 45 16 45 51 0 30 -32 96 -47
96 -5 0 -9 -32 -10 -70z"/>
<path d="M530 630 c0 -5 5 -10 10 -10 6 0 10 5 10 10 0 6 -4 10 -10 10 -5 0
-10 -4 -10 -10z"/>
<path d="M4870 630 c0 -5 5 -10 10 -10 6 0 10 5 10 10 0 6 -4 10 -10 10 -5 0
-10 -4 -10 -10z"/>
<path d="M526 602 c-3 -6 -1 -14 5 -17 15 -10 25 3 12 16 -7 7 -13 7 -17 1z"/>
<path d="M4870 595 c0 -8 5 -15 10 -15 6 0 10 7 10 15 0 8 -4 15 -10 15 -5 0
-10 -7 -10 -15z"/>
<path d="M525 561 c-7 -12 12 -24 25 -16 11 7 4 25 -10 25 -5 0 -11 -4 -15 -9z"/>
<path d="M4867 563 c-12 -11 -8 -23 8 -23 8 0 15 7 15 15 0 16 -12 20 -23 8z"/>
<path d="M541 520 c-16 -9 -6 -30 15 -30 15 0 20 25 6 34 -4 2 -14 1 -21 -4z"/>
<path d="M4851 516 c-12 -14 -5 -26 16 -26 15 0 18 26 4 34 -5 3 -14 0 -20 -8z"/>
<path d="M560 465 c0 -8 7 -15 15 -15 8 0 15 7 15 15 0 8 -7 15 -15 15 -8 0
-15 -7 -15 -15z"/>
<path d="M4825 471 c-7 -12 12 -24 25 -16 11 7 4 25 -10 25 -5 0 -11 -4 -15
-9z"/>
<path d="M595 439 c-10 -15 3 -25 16 -12 7 7 7 13 1 17 -6 3 -14 1 -17 -5z"/>
<path d="M4800 435 c0 -9 5 -15 11 -13 6 2 11 8 11 13 0 5 -5 11 -11 13 -6 2
-11 -4 -11 -13z"/>
<path d="M625 420 c-3 -5 -1 -10 4 -10 6 0 11 5 11 10 0 6 -2 10 -4 10 -3 0
-8 -4 -11 -10z"/>
<path d="M4775 420 c-3 -5 -1 -10 4 -10 6 0 11 5 11 10 0 6 -2 10 -4 10 -3 0
-8 -4 -11 -10z"/>
</g>
</svg>
